<?xml version="1.0" standalone="no"?>
<!DOCTYPE svg PUBLIC "-//W3C//DTD SVG 20010904//EN"
 "http://www.w3.org/TR/2001/REC-SVG-20010904/DTD/svg10.dtd">
<svg version="1.0" xmlns="http://www.w3.org/2000/svg"
 width="183.000000pt" height="148.000000pt" viewBox="0 0 183.000000 148.000000"
 preserveAspectRatio="xMidYMid meet">

<g transform="translate(0.000000,148.000000) scale(0.100000,-0.100000)"
fill="#000000" stroke="none">
<path d="M1040 1144 c-410 -178 -748 -324 -752 -324 -5 0 -8 27 -8 60 l0 60
-55 0 -55 0 0 -87 0 -88 -80 -34 -80 -33 0 -55 c0 -48 2 -54 17 -49 10 4 415
179 901 389 l882 382 0 52 c0 36 -4 53 -12 52 -7 0 -348 -146 -758 -325z"/>
<path d="M1324 1015 c-9 -22 5 -86 24 -115 9 -14 19 -43 22 -65 l5 -40 53 -3
52 -3 0 39 c0 22 9 59 20 83 22 50 27 123 8 117 -7 -3 -16 -22 -19 -43 -16
-99 -123 -97 -136 3 -6 42 -19 55 -29 27z"/>
<path d="M1544 995 c-3 -14 -1 -45 6 -68 7 -23 15 -62 17 -87 6 -52 14 -60 65
-60 33 0 37 3 43 33 4 17 17 48 30 67 25 38 41 115 26 125 -5 3 -12 -5 -16
-17 -24 -86 -54 -109 -104 -83 -32 16 -41 33 -41 75 0 38 -18 48 -26 15z"/>
<path d="M1280 975 c0 -25 -8 -44 -25 -60 -46 -47 -107 -22 -121 49 -3 20 -11
36 -16 36 -18 0 1 -78 32 -137 17 -31 30 -63 30 -72 0 -13 9 -15 45 -13 l45 4
0 42 c1 22 7 52 15 66 16 29 20 120 5 120 -5 0 -10 -16 -10 -35z"/>
<path d="M1384 985 c-7 -29 10 -55 36 -55 24 0 42 24 38 52 -2 18 -10 24 -35
26 -28 3 -33 -1 -39 -23z"/>
<path d="M1610 985 c-19 -23 -4 -65 23 -65 45 0 65 50 28 70 -26 14 -36 13
-51 -5z"/>
<path d="M1181 976 c-19 -22 -4 -56 23 -56 32 0 53 26 39 48 -14 23 -47 27
-62 8z"/>
<path d="M1295 759 c-49 -4 -119 -15 -155 -23 -61 -13 -46 -14 274 -15 187 -1
337 1 335 4 -10 9 -186 34 -274 38 -49 3 -130 1 -180 -4z"/>
<path d="M223 664 l-53 -23 0 -160 0 -161 55 0 55 0 0 70 0 70 65 0 65 0 0
-70 0 -70 50 0 50 0 0 165 0 165 -50 0 -50 0 0 -60 0 -60 -65 0 -64 0 -3 79
-3 79 -52 -24z"/>
<path d="M697 646 c-26 -7 -57 -21 -68 -32 -50 -44 -63 -137 -30 -211 20 -43
40 -58 106 -79 34 -11 -1 -13 -247 -13 l-288 -1 0 -155 0 -155 820 0 820 0 0
155 0 155 -507 1 c-280 1 -494 4 -476 9 51 12 97 43 116 80 24 47 19 148 -9
187 -42 57 -148 84 -237 59z m136 -87 c26 -32 23 -116 -5 -146 -31 -33 -90
-32 -117 3 -37 47 -23 140 23 163 29 15 78 5 99 -20z m857 -336 c0 -6 13 -15
28 -21 20 -7 28 -16 27 -33 0 -31 -44 -89 -66 -89 -11 0 -19 -9 -21 -22 -4
-30 -22 -30 -26 -1 -2 14 -10 23 -21 23 -22 0 -65 57 -68 91 -2 22 2 28 27 33
17 3 30 11 30 17 0 6 10 19 22 29 21 16 24 17 45 1 12 -9 23 -21 23 -28z
m-1330 7 c0 -13 -7 -20 -20 -20 -18 0 -20 -7 -20 -70 0 -63 -2 -70 -20 -70
-18 0 -20 7 -20 70 0 68 -1 70 -25 70 -18 0 -25 5 -25 20 0 18 7 20 65 20 58
0 65 -2 65 -20z m167 -2 c31 -29 33 -108 3 -138 -26 -26 -100 -28 -123 -2 -35
39 -34 105 3 142 28 28 87 27 117 -2z m191 -2 c3 -16 0 -18 -23 -12 -37 9 -75
-16 -75 -50 0 -39 18 -64 45 -64 31 0 34 29 5 37 -37 10 -23 33 21 33 l40 0
-3 -47 -3 -48 -52 -3 c-66 -4 -93 20 -93 85 0 62 34 95 93 91 32 -2 43 -8 45
-22z m152 4 c0 -16 -7 -20 -30 -20 -20 0 -30 -5 -30 -15 0 -10 10 -15 30 -15
20 0 30 -5 30 -15 0 -10 -10 -15 -30 -15 -25 0 -30 -4 -30 -25 0 -21 5 -25 30
-25 20 0 30 -5 30 -15 0 -11 -12 -15 -50 -15 l-50 0 0 90 0 90 50 0 c43 0 50
-3 50 -20z m150 0 c0 -13 -7 -20 -20 -20 -18 0 -20 -7 -20 -70 0 -63 -2 -70
-20 -70 -18 0 -20 7 -20 70 0 68 -1 70 -25 70 -18 0 -25 5 -25 20 0 18 7 20
65 20 58 0 65 -2 65 -20z m70 -15 c0 -32 2 -35 30 -35 28 0 30 3 30 35 0 28 4
35 20 35 19 0 20 -7 20 -90 0 -83 -1 -90 -20 -90 -16 0 -20 7 -20 35 0 32 -2
35 -30 35 -28 0 -30 -3 -30 -35 0 -28 -4 -35 -20 -35 -19 0 -20 7 -20 90 0 83
1 90 20 90 16 0 20 -7 20 -35z m250 15 c0 -16 -7 -20 -30 -20 -20 0 -30 -5
-30 -15 0 -10 10 -15 30 -15 20 0 30 -5 30 -15 0 -10 -10 -15 -30 -15 -25 0
-30 -4 -30 -25 0 -21 5 -25 30 -25 20 0 30 -5 30 -15 0 -11 -12 -15 -50 -15
l-50 0 0 90 0 90 50 0 c43 0 50 -3 50 -20z m138 4 c25 -17 29 -50 7 -74 -13
-14 -12 -20 11 -53 l25 -37 -23 0 c-15 0 -31 13 -48 38 l-25 37 -3 -37 c-3
-30 -7 -38 -23 -38 -17 0 -19 8 -19 90 l0 90 38 0 c21 0 48 -7 60 -16z"/>
<path d="M1626 235 c-12 -9 -16 -20 -11 -34 6 -19 3 -20 -24 -15 -28 6 -31 4
-31 -18 0 -36 39 -68 83 -68 45 0 87 33 87 68 0 22 -3 24 -30 18 -27 -5 -30
-3 -25 17 8 30 -23 50 -49 32z"/>
<path d="M446 207 c-23 -17 -19 -85 7 -101 42 -26 79 60 42 98 -20 19 -26 20
-49 3z"/>
<path d="M1420 189 c0 -14 5 -19 17 -17 26 5 29 38 4 38 -15 0 -21 -6 -21 -21z"/>
<path d="M1040 485 l0 -165 51 0 52 0 -5 123 -6 122 43 -120 43 -120 48 -3 49
-3 40 118 40 118 3 -117 3 -118 44 0 45 0 0 165 0 165 -69 0 -70 0 -38 -115
c-20 -63 -40 -115 -43 -115 -3 0 -23 52 -45 115 l-40 115 -72 0 -73 0 0 -165z"/>
<path d="M1570 485 l0 -165 120 0 120 0 0 35 0 35 -65 0 -65 0 0 35 0 35 60 0
60 0 0 35 0 35 -60 0 c-57 0 -60 1 -60 25 0 24 2 25 65 25 l65 0 0 35 0 35
-120 0 -120 0 0 -165z"/>
</g>
</svg>
